<svg xmlns="http://www.w3.org/2000/svg" width="221" height="146" viewBox="0 0 58.473 38.629"><path d="M43.796 15.094c.085.147.195.255.203.37.014.225.168.246.32.278.092.02.2-.015.284.018.257.1.342-.09.451-.216l-1.258-.45M35.3 20.617c.15-.011.27-.016.389-.03.594-.063 1.19-.124 1.782-.202.075-.01.137-.113.205-.174-.078-.078-.143-.2-.235-.224a.753.753 0 00-.424.016c-.292.106-.571-.005-.813-.091-.185-.066-.27-.039-.387.057-.093.077-.176.098-.265-.01-.032-.039-.087-.06-.169-.114.097.272-.021.337-.229.317-.231-.023-.337.146-.449.298-.023.032-.018.119.01.145.026.027.105.029.145.01.123-.058.237-.132.355-.197l.073-.001.012.2m2.552.745c-.316.164-.6.264-.823.44-.224.176-.389.428-.589.657l.293.013c-.48.702-1.193 1.015-1.867 1.383a.157.157 0 00.103.015c.55-.132 1.098-.268 1.648-.395.072-.016.17-.015.228.023.158.102.299.078.432-.062.086-.09.206-.153.321-.209.084-.04.183-.053.277-.072.167-.036.21-.134.186-.297-.038-.26-.052-.524-.088-.785-.03-.228-.076-.453-.12-.71m8.473-4.896l-.228.148.874.308.022-.263h.408l.021-.061-.738-.334.2-.123-.211-.477.584-.12-.017-.148.79.042-.241-.577.065-.055.976.404-.128.2.469.17-.026-.312c.09.085.154.138.206.19l.55.355c.636.269 1.257.584 1.858.924.259.147.496.302.796.357.172.032.332.135.498.203.041.017.088.04.13.036.165-.018.298.025.456.097.545.25 1.089.51 1.692.618.612.11 1.216.264 1.824.396.127.028.243.095.39-.005.1-.07.452.235.47.382.013.12-.183.375-.316.378-.217.004-.436-.035-.651-.019-.124.01-.242.093-.363.143l.01.077c-.095-.05-.188-.133-.287-.142-.176-.016-.367-.02-.532.033a.553.553 0 01-.537-.084c-.087-.062-.213-.13-.297-.072l-1.458.361c-.885-.237-.61-.287-.821-.19.104.062.178.111.256.152l.035.38c-.855.644-1.824.872-2.87.72a6.42 6.42 0 01-1.338-.35c-.213-.08-.371-.308-.554-.47l-.008-.01c-.23-.59-.73-.833-1.28-1.014-.11-.036-.218-.078-.372-.135l.222-.088-.002-.075c-.068 0-.137-.009-.203.002-.11.018-.19.026-.243-.114-.031-.08-.139-.14-.222-.192-.165-.104-.379-.162-.495-.303-.17-.205-.373-.253-.605-.274-.225-.02-.395-.103-.473-.336-.021-.065-.095-.127-.16-.16-.352-.183-.714-.346-1.06-.539-.12-.066-.2-.202-.302-.3a36.079 36.079 0 00-.648-.603c-.13-.117-.258-.125-.403-.003-.236.197-.48.385-.73.564-.107.077-.238.122-.406.204.101.147.192.289.293.423.226.301.47.602.483.994.006.173-.081.36-.164.521-.059.117-.179.202-.272.3-.435.458-.918.808-1.585.843-.178.01-.356.123-.521.21-.136.073-.126.204-.076.337.055.151.166.124.277.1.396-.09.793-.101 1.183.02.125.038.27.1.343.198.088.117.182.314.138.422-.05.126-.235.24-.382.274-.277.066-.57.067-.855.103-.343.044-.416.11-.366.443.077.51.191 1.013.287 1.503.528-.1.998-.206 1.474-.271.221-.03.453.032.68.033.145 0 .306-.001.431-.062.252-.122.47-.05.679.072.055.032.085.141.09.218.012.165-.006.332.001.498.004.065.041.13.071.19.037.076.083.148.125.222-.077.028-.154.057-.232.084-.022.007-.046.008-.09.016l.245.413c-.202-.011-.371.133-.53-.066-.034-.042-.18.003-.272.014-.084.01-.167.028-.251.043l-.03-.062.238-.145c-.237-.134-.433-.088-.588.147-.117.177-.35.214-.525.143-.148 0-.298.007-.446-.002-.198-.012-.404-.065-.519.17l-.014.019c-.38.114-.244.404-.24.663.022 1.485.058 2.97.04 4.455-.009.735-.127 1.468-.19 2.202l.012.34c.047.499-.17.94-.314 1.403-.108.349-.312.595-.563.832-.199.188-.412.373-.56.597a4.72 4.72 0 00-.486.942c-.136.359-.283.636-.701.761-.477.142-.924.388-1.38.597-.047.022-.059.115-.1.163-.238.282-.478.563-.726.837-.026.03-.11.021-.162.008-.253-.062-.505-.131-.76-.199.122-.257.068-.356-.19-.387-.214-.026-.427-.07-.64-.08-.122-.005-.245.045-.367.068-.038.008-.09.024-.115.006-.156-.103-.302-.22-.459-.321l-.346-.115c-.296-.03-.593-.052-.89-.122l.415-.076.019-.09-1.28-.53.294-.127-.317-.106.088-.456c-.178-.058-.178-.058-.306.143-.492-.396-1.012-.623-1.655-.316.003-.278-.195-.285-.328-.27-.321.036-.637-.177-.956-.01-.399-.257-.871-.031-1.28-.193l-1.224.018c-.162.084-.328.024-.49-.014a94.637 94.637 0 01-.973-.23.286.286 0 01-.141-.083 6.68 6.68 0 00.9-.197c.6-.182 1.225-.288 1.834-.445.206-.053.402-.152.591-.252.075-.04.177-.16.16-.205-.03-.083-.135-.19-.215-.194a5.563 5.563 0 00-.774.017c-.198.014-.395.068-.592.068-.066 0-.132-.11-.215-.187l-.018-.001c-.759.276-1.553.159-2.332.21h-.046c-.28-.283-.595-.077-.896-.067-.04 0-.087.008-.118-.009-.235-.129-.484-.081-.734-.083-.228-.002-.43.03-.587.203-.113.123-.237.152-.406.131-.85-.105-1.476-.5-1.973-1.473l-.237-.861c-.027-.132-.152-.262-.248-.433l.5.175c-.046-.125-.064-.207-.105-.277-.217-.366-.576-.567-.93-.767-.118-.067-.165-.141-.167-.28a.54.54 0 00-.112-.322c-.256-.298-.547-.556-.968-.644l.048-.367.827.752c.255.23.51.457.764.688l.166.208c.287.481.683.856 1.165 1.135.486.282.924.608 1.313 1.023.299.318.703.421 1.144.319l.793-.089c1.009-.048 2.021-.042 3.005-.4l.908-.133c.049-.004.093-.036.138-.06.123-.064.244-.133.368-.194.095-.048.195-.087.293-.129.035-.014.08-.046.104-.035.227.107.329-.061.397-.138.255-.031.453-.05.65-.08.267-.043.532-.097.8-.14.082-.012.168-.001.256-.001 0 .058.008.085 0 .103-.12.24-.085.156.13.248.26.111.464.055.695.002l.069.009c.13.241.326.141.522.078.018.068.018.124.044.163.122.185-.001.218-.142.238-.185.027-.373.032-.552.077-.286.071-.589.005-.746-.21h.367l.01-.066c-.179-.127-.387-.124-.614-.12.134.322.1.366-.228.357-.096-.003-.192.01-.288.015l-.003.073.706.138.023.24.341-.035-.1.206c.083.012.153.04.215.028.236-.046.469-.096.696.034l.091.005c.26-.242.579-.072.864-.127.102-.02.206-.024.308-.04.131-.021.268-.042.128-.268l.565.124c.052.019.167.025.193.076.1.195.243.173.405.12a1.75 1.75 0 00.134-.05c.37-.156.37-.156.444.18.741-.348 1.541-.392 2.344-.436l.395-.124c.315-.197.624-.407.923-.629.182-.135.34-.3.508-.455l.022-.075c-.062-.312.23-.423.351-.631.171-.29.282-.617.415-.93.028-.064.02-.15.059-.205.437-.631.465-1.38.609-2.096.05-.25.099-.501.123-.755a3.215 3.215 0 00-.006-.594c-.025-.282-.076-.561-.104-.843-.014-.134-.053-.202-.206-.19a3.762 3.762 0 00-1.39.362c-.248.124-.533.266-.688.56-.064.122-.242.197-.382.263-.54.257-.935.693-1.335 1.11-.305.318-.519.723-.81 1.058a1.31 1.31 0 01-.555.374c-.228.076-.488.057-.735.075-.046.003-.105 0-.138-.026-.293-.228-.598-.444-.867-.698-.614-.577-.645-1.34-.56-2.096.052-.472.347-.792.78-.981l.856-.4c.766-.43 1.526-.871 2.288-1.31a123.63 123.63 0 001.508-.881c.05-.03.072-.105.106-.159-.063-.01-.144-.049-.188-.023-.272.158-.562.3-.798.505-.549.475-1.127.395-1.505-.235-.11-.184-.261-.345-.362-.533-.072-.134-.144-.303-.125-.444.042-.304.132-.603.226-.897.024-.074.127-.133.207-.175.302-.16.61-.309.914-.466.032-.016.052-.056.101-.113-.291-.13-.373-.39-.462-.654-.036-.107-.152-.186-.262-.313-.054.112-.075.18-.113.234-.063.088-.144.243-.203.237-.18-.018-.146-.183-.146-.32 0-.113-.034-.226-.052-.34l-.096.002-.07.274c-.28.049-.398-.035-.466-.327-.081-.351.028-.58.331-.653.308-.074.613-.11.904.09.171.117.768.003.931-.128.088-.071.205-.11.314-.151.287-.108.575-.215.866-.309.147-.047.303-.103.423.08.04.061.143.08.218.117l.031-.05-.157-.361c.217-.095.447-.168.649-.288.513-.306 1.008-.644 1.524-.946.355-.207.718-.423 1.106-.544.305-.095.574-.23.828-.403.208-.142.393-.319.578-.472-.416-.402-.893-.734-1.188-1.185-.293-.45-.404-1.017-.616-1.589l.354.099c.07-.175.192-.2.363-.115.488.25.98.493 1.474.732.315.154.639.29.953.447.126.063.196.04.28-.068a1.66 1.66 0 01.323-.316c.049-.035.15.012.218-.01.125-.039.27-.074.356-.16.084-.085.177-.202.072-.37-.048-.076-.006-.253.056-.342.205-.294.458-.556.653-.855.16-.248.266-.532.386-.78-.33-.29-.604-.21-.882-.039-.35.216-.628.493-.778.88-.102.264-.172.542-.294.795l-.5.155c-.323-.2-.639-.416-.954-.63-.048-.033-.106-.095-.108-.145-.01-.294-.009-.588 0-.882.002-.043.062-.088.102-.124.278-.249.554-.5.839-.741a.705.705 0 01.35-.158l-.294.444.08.059 1.302-1.532c.223.183.243.17.341-.162.178.124.17.116.023.26-.211.204-.408.424-.611.638l.06.094c.175-.06.363-.097.522-.185.39-.216.8-.251 1.225-.181l1.052.748c.173.304.4.583.394.966-.006.435-.214.777-.477 1.094-.22.264-.459.512-.674.78-.246.304-.465.632-.718.93-.084.1-.234.147-.36.205-.12.056-.247.094-.371.14l.039-.154-.064-.054c-.084.092-.18.177-.24.283-.011.02.112.155.19.18.335.105.677.181 1.014.28.609.177.773.535.544 1.128a.415.415 0 00.015.317c.16.27.347.524.538.806m-32.944 1.836l-.016.065.557.195c-.12-.247-.312-.302-.541-.26m5.065-4.654c.08.111.12.212.16.213.151.002.315-.005.407-.213zm-5.74 1.603c.256.22.597.208.688 0zm5.616-1.504l-.516-.325-.022.042.225.462c.02-.018.056-.065.103-.093.06-.035.129-.053.21-.086m-6.175.683l-.006-.07-.9.063.011.108.23-.039c.142-.027.294-.101.383.1.008.017.109.017.145-.008.056-.036.093-.101.137-.154m1.068.23l.016-.07-.792-.182c.041.372.404.418.776.253m-2.17-.871c.046.233-.116.294-.32.312-.095.008-.192.005-.286.018-.038.006-.071.044-.107.068.194.043.367.047.54.04a.36.36 0 00.176-.057c.293-.198.603-.128.913-.074.154.027.306.057.459.085l.032-.11c-.071-.027-.14-.07-.214-.077-.22-.023-.446-.02-.665-.053-.087-.013-.165-.092-.265-.152zm-.115 2.248l.004.047c.156 0 .311-.003.467 0 .247.007.539-.083.608.317l.268-.199-.16-.287c.175-.027.353-.01.288-.251-.452-.048-.91-.13-1.383.043l.25.185-.342.145m9.004-1.385c-.31-.113-.594-.222-.882-.32-.253-.087-.553.03-.657.279-.03.07.02.227.085.272.088.06.225.074.338.065.3-.024.6-.085.901-.105.155-.01.218-.065.215-.19m-5.45 1.355c-.063.28-.2.37-.375.402-.159.03-.32.04-.482.059.419.117.84.195 1.264.244.1.012.224-.051.313-.113.094-.066.16-.173.256-.283-.206-.103-.442-.2-.655-.332-.402-.25-.858-.03-1.267-.183-.053.162.02.192.15.191.256-.001.513.009.795.015m2.573-2.534c-.026.297-.279.353-.481.468l.295.266c.145-.033.334-.048.495-.122.099-.046.163-.18.22-.286.007-.015-.126-.103-.194-.156-.054-.042-.109-.081-.208-.154.127-.046.202-.087.282-.1.389-.064.77-.199 1.177-.058.112.039.269-.04.402-.075.076-.02.143-.071.218-.087.39-.08.783-.155 1.175-.23a1.03 1.03 0 01.317-.01c-.228.18-.447.351-.35.696.19-.04.382-.088.575-.119.198-.03.227.025.19.222-.042.23-.217.459-.036.706.003.005-.112.139-.173.14-.096.002-.191-.065-.29-.088-.11-.027-.224-.038-.336-.055l-.02.08.24.164-.337.133c.01.285-.015.282-.298.219-.18-.04-.379 0-.567.02-.206.023-.409.085-.614.09a1.737 1.737 0 01-.487-.082c-.13-.036-.243-.104-.039-.237-.221-.042-.884.22-.967.368-.032.057-.038.13-.057.201l.4.104c-.187.179-.502-.037-.586.268-.053.194-.1.39-.17.665l-.513.032-.024.04c.147.053.29.135.442.153.228.027.462.003.693.013.192.009.406-.032.52.201.017.036.113.05.172.048.285-.011.57-.036.856-.045.058-.001.153.031.166.069.02.06.007.156-.032.206-.068.087-.173.142-.248.223-.123.133-.244.245-.095.47.158.24-.256.838-.537.786-.279-.052-.48.063-.686.202-.18.12-.345.23-.59.193-.11-.017-.242.097-.33.136l.208.386-.054.064c-.454-.054-.907-.113-1.362-.158-.2-.02-.427-.105-.519.21-.044.153-.236.102-.417-.123.054-.02.106-.034.151-.058a.247.247 0 00.1-.11c-.187-.011-.362-.265-.566.035-.05.074-.32.061-.453.004-.285-.123-.548-.294-.88-.26-.368.037-.737.066-1.106.105-.057.006-.152.043-.157.076-.043.284-.286.302-.467.3-.605-.003-1.097.299-1.619.529l-.04.026c-.2.375-.557.329-.9.346-.517.026-1.037.045-1.55.112-.557.072-.952.372-1.13.932-.099.31-.375.434-.653.553-.842.36-1.681.307-2.538.042-.694-.214-1.275-.54-1.57-1.245a.613.613 0 00-.1-.162c-.527-.61-.631-1.338-.632-2.111 0-.394-.103-.786-.144-1.18-.062-.6-.048-1.187.15-1.772.1-.294.099-.628.097-.945 0-.123-.12-.25-.197-.367-.07-.106-.164-.196-.234-.3-.156-.232-.125-.316.073-.508.119-.115.187-.281.287-.417.063-.084.13-.192.22-.224.137-.05.295-.06.445-.061.558-.006 1.118-.023 1.675.003.812.037 1.624.09 2.433.168a18.12 18.12 0 011.604.25c.808.157 1.62.107 2.435.086a262.41 262.41 0 014.048-.076c.243-.003.493.049.731.11.638.168 1.284.128 1.93.108.326-.01.653-.044.98-.065.05-.003.101.013.151.02" fill="#231f20"/><path d="M34.267 6.014l-.088.012.034.505.098-.008-.044-.509m-1.21-1.23l.087.112c.09-.062.186-.119.263-.194.014-.014-.05-.108-.079-.165l-.27.247m4.121.73c.151.245.382.236.658 0zm-5.808 4.604c-.37.233-.37.233-.358.442h.456l-.098-.442m1.215-1.791c.4-.017.804-.027 1.22-.263-.499-.198-.832.172-1.22.263m1.478.025c-.444.002-.629.033-.438.475l.28-.057.123.235.035-.017zm4.093-2.694c.17-.035.326-.065.482-.1.2-.044.388-.093.221-.368-.036-.06-.023-.152-.032-.228-.518.022-.792.3-.67.696m-4.6 4.15l-.042.038c.052.076.115.148.152.23.017.038-.018.098-.03.147-.049-.012-.134-.013-.142-.038-.082-.27-.281-.227-.487-.203-.16.018-.343.065-.416-.168-.009-.03-.11-.05-.165-.043-.11.014-.217.048-.325.077-.18.05-.157.156-.06.262.052.055.128.087.208.138.025-.18.074-.306.244-.199l.016.342.247-.101.151.188-.028-.328c.454-.103.48-.092.514.2l.452.125.054-.503a135.08 135.08 0 01-.342-.163m-1.247-3.903c.026.019.076.084.134.092.21.029.424.069.63.047.18-.02.357-.105.523-.186.068-.033.158-.146.145-.2-.035-.144-.12-.277-.19-.412a.488.488 0 00-.12.054c-.066.045-.124.1-.189.146-.128.088-.234.194-.418.056-.15-.111-.523.159-.515.403m.202-2.272l-.043.399.84.057c0-.318.003-.62 0-.92-.002-.208-.064-.433-.005-.62.176-.562.025-1.132.08-1.706h.376L33.93.57c.4.192.67.467.86.848a3.24 3.24 0 01.355 1.684c-.012.188.009.386.06.566.037.133.122.298.233.353.173.084.384.11.58.118.295.01.59-.005.884-.034.068-.006.128-.107.23-.199-.359-.082-.644-.147-.929-.217l.01-.076c.472.04.929.1 1.387.11.198.006.412-.06.595-.143.349-.158.7-.127 1.055-.076.09.013.169.09.253.139l-.016.088c-.257.024-.514.05-.843.08.27.142.419.399.716.236l.134.057c.023.12.023.246.033.391-.47-.14-.586-.11-.808.226.2-.016.355-.037.51-.038.066 0 .151.024.195.069.063.066.097.16.159.27-.292.102-.086.324-.14.515-.095 0-.197-.009-.297.003-.053.007-.12.038-.147.08-.017.027.016.124.048.137.28.12.482.387.807.427.192.024.191.036.188.414-.12-.05-.228-.08-.317-.137-.132-.085-.241-.063-.394-.035-.33.06-.607.386-.984.208-.107-.05-.216-.095-.328-.143.124-.2-.006-.41-.253-.425-.226-.013-.425-.023-.594-.233-.075-.095-.295-.083-.451-.101-.188-.023-.35-.065-.385-.285-.035-.215.09-.582.243-.628.094-.028.21.022.36.042l.121-.443-.97-.054.216.352-.252.036c-.11.015-.201.038-.19.187.003.048-.043.128-.086.144-.302.112-.485.326-.565.679l-.16-.224-.078.001c0 .104-.034.227.01.306.036.064.172.115.252.102.148-.023.202.033.2.157-.007.341-.008.684-.04 1.023-.033.345-.032.37.308.41.38.044.76.082 1.145.123-.115.135-.283.122-.456.112-.184-.01-.383-.039-.518.223.144.013.25.018.356.032.154.022.308.067.462.07.126.004.258-.026.376-.07.023-.009-.013-.152-.004-.231.006-.051.033-.118.073-.142a.28.28 0 01.184-.03c.343.072.691.128 1.023.235.398.129.58.485.729.84.28.667.367 1.364.276 2.084-.065.513-.112 1.027-.18 1.54-.036.274-.096.545-.156.816-.012.056-.07.103-.135.193l-.114-.353-.077-.023-.261.603c-.007 0-.06-.022-.106-.012-.455.101-.64-.26-.686-.637-.096-.773.034-1.543.004-2.315-.015-.362-.084-.466-.44-.453-.2.007-.398.042-.597.045-.27.004-.535-.02-.686-.306-.021-.04-.126-.081-.16-.062-.274.147-.52-.11-.789-.046-.036.009-.102-.1-.173-.175-.143.016-.254.05-.122.257.117.183-.027.304-.141.497l-.144-.364-.05.003c-.022.147-.044.294-.074.507l2.464.076c.048.192-.137.213-.254.258-.007.117.01.225-.025.313-.051.129-.116.202-.283.072-.25-.194-.523-.045-.76.065-.222.102-.42.258-.62.4a.399.399 0 00-.166.463c.022.075.084.17.148.189.046.014.125-.082.188-.128.17-.009.358 0 .539-.033.392-.07.563-.003.478.467-.047.26-.157.547-.024.833.023.05-.078.22-.147.24-.276.073-.561.108-.83.156-.18-.245-.382-.236-.488.015-.075.176-.187.364-.034.564l-.007.124c-.073.01-.148.006-.23.006-.247.257-.537.404-.918.277-.363-.121-.682-.1-.937.246-.069.095-.24.113-.377.172.127.18.309.07.487.086l-.193.174c.195.115.366.24.556.316.076.03.25-.019.284-.083.125-.231.195-.093.281.017.093-.278.357-.212.554-.268.141-.041.296-.033.455-.047v-.283l.051-.003.029.373c-.383.165-.383.165-.317.578.155-.123.3-.211.41-.33.26-.282.619-.392.98-.276.241.078.395.014.483-.193l-.057.899.214-.024.028.043-.317.26h.385l.042.086c-.106.07-.207.191-.32.203-.276.028-.446.197-.614.377-.195.21-.539.262-.748.079-.067-.059-.084-.175-.157-.337l-.11.4c-.214-.034-.444-.037-.645-.113-.266-.102-.501.006-.75.03l-.085.028c-.143.283-.376.202-.605.163-.068-.011-.17-.008-.211.033-.152.15-.31.132-.455.026-.231-.168-.443-.363-.67-.537-.14-.105-.282-.23-.443-.276-.306-.09-.384-.311-.409-.575-.027-.292-.057-.586-.042-.877.006-.125.121-.245.187-.368l.279.157.588-.613c.396.098.698-.213 1.003-.444-.02-.091-.036-.191-.067-.285a.23.23 0 00-.092-.119c-.192-.108-.249-.266-.232-.48.016-.222.003-.447-.006-.67-.008-.184.104-.317.277-.28.217.046.36-.027.517-.177.091-.087.268-.08.403-.127.117-.04.228-.094.343-.142l.009-.08c-.09-.041-.182-.12-.271-.118-.318.007-.635.053-.952.063-.3.01-.603.003-.903-.018-.19-.014-.27-.163-.33-.334-.082-.229-.113-.224-.27-.046a.827.827 0 01-.25.172c-.139.07-.284.125-.404.177l-.335-.955c.072-.128.162-.22.174-.322.041-.343.338-.412.558-.568.109-.076.217-.156.312-.247.287-.276.54-.575.695-.95a.339.339 0 01.19-.165 6.24 6.24 0 01.711-.198c.366-.075.736-.128 1.103-.199.19-.036.363-.315.345-.535a.393.393 0 00-.427-.367c-.375.014-.756.014-1.122.087-.748.151-.963.419-1.083 1.154-.016.102-.026.206-.056.304-.19.625-.19.625-.842.603-.251-.009-.567-.28-.643-.617-.127-.557-.208-1.125-.33-1.684-.073-.333-.19-.657-.281-.987-.089-.321-.108-.62.107-.928.156-.221.232-.504.312-.77.088-.292.238-.463.565-.48.26-.015.52-.124.779-.122.617.008 1.235.057 1.881.091m11.905 4.331l1.147-.957c-.377-.682-.345-1.29-.291-1.907.034-.404.033-.812.036-1.217.002-.185-.085-.252-.292-.232-.305.028-.617-.016-.923.009a.49.49 0 00-.335.19 9.275 9.275 0 00-.565 1.044c-.21.463-.391.938-.577 1.412-.091.231-.188.45-.413.589-.036.022-.06.097-.057.145.057.737-.11 1.44-.315 2.139-.088.303-.153.614-.25.914-.052.165-.341.274-.546.227-.198-.044-.244-.19-.263-.375-.033-.332-.1-.66-.137-.992-.046-.418-.122-.844.14-1.229l.021-.043c.1-.63.57-1.088.777-1.668.016-.045.074-.076.11-.114.074-.076.172-.14.216-.231.189-.388.358-.786.541-1.177.29-.618.694-1.159 1.142-1.67.068-.077.134-.158.188-.245.242-.394.574-.699.938-.975.107-.08.186-.201.3-.267.097-.056.234-.105.336-.081.526.117.843.505 1.143.916.46.632.505 1.34.414 2.077-.057.463-.03.89.3 1.273.173.202.264.473.408.701.239.377.152.75.002 1.12-.095.233-.252.34-.537.317-.634-.05-1.255.023-1.838.322-.23.118-.484.229-.82-.015m-22.205 7.291l.173-.142c-.08-.187-.08-.187-.594-.183l-.199-.562.785-.282c.062-.262-.345-.163-.38-.44l-.12.393c-.168-.336-.323-.66-.109-1.037l-.399-.312c.205-.058.357-.106.512-.147.853-.228 1.706-.453 2.56-.683.073-.02.14-.06.188-.081-.008.124-.004.246-.028.364a.5.5 0 01-.112.23c-.173.189-.37.358-.535.554a1.372 1.372 0 00-.218.4c-.015.04.05.136.102.17.062.04.15.04.286.072l-.987 1.231.209.06c-.037.039-.063.076-.098.102-.212.159-.49.254-.534.575-.003.013-.169.038-.224.003-.095-.06-.162-.162-.278-.285" fill="#231f20"/><path d="M38.308 15.57l-.277-.03c.01.115.04.218.021.313-.026.14-.053.357-.14.391a.793.793 0 01-.537 0c-.159-.061-.288-.22-.409-.356-.224-.254-.404-.554-.802-.6l.03-.061.285-.125-.435-.65c.26-.182.513-.07.773.022.041-.242-.364-.383-.104-.63.722.181 1.498 1.011 1.595 1.726M16.932 31.92c.113.148.239.29.338.446.204.323.395.654.591.982.02.034.04.072.068.097.344.305.682.613.966.98.196.255.494.369.802.445.09.022.181.05.272.074l-.005.07c-.174-.01-.356.008-.519-.04a15.446 15.446 0 01-1.127-.393.621.621 0 01-.26-.197 19.026 19.026 0 01-.764-1.062 1.948 1.948 0 01-.227-.54c-.077-.273-.124-.554-.184-.831zm-3.067-4.365c-.264-.277-.694-.348-.877-.73-.017-.035-.12-.027-.137-.061a.471.471 0 01-.055-.237c.007-.088.048-.086.155-.077.19.017.295.115.345.25.114.31.368.503.563.744l.049.07zm15.579 9.211c.194-.064.388-.13.584-.187.033-.01.11.02.112.038.006.044-.008.106-.038.136-.145.15-.425.175-.658.013m.133-.418c-.293.068-.48-.177-.769-.196.31-.19.593-.109.77.196m-15.247-8.485l.461.466-.08.08-.448-.473z" fill="#231f20"/><path d="M44.322 14.568c.084.147.194.255.202.37.015.225.168.246.32.279.092.019.2-.015.284.017.258.1.343-.09.452-.216l-1.258-.45m-8.497 5.523c.151-.01.27-.016.39-.029.594-.064 1.189-.124 1.781-.202.075-.01.137-.114.205-.174-.077-.078-.143-.2-.234-.225a.753.753 0 00-.424.016c-.292.107-.572-.005-.813-.091-.185-.066-.27-.038-.387.058-.093.076-.177.098-.265-.01-.033-.04-.088-.06-.17-.114.097.271-.02.337-.228.316-.231-.023-.338.147-.45.299-.023.032-.017.118.01.144.027.027.105.03.146.01.122-.057.236-.132.355-.196l.073-.002.011.2m2.553.746c-.316.164-.6.263-.824.44-.224.176-.388.427-.588.656l.293.014c-.48.701-1.193 1.015-1.867 1.383a.157.157 0 00.102.014c.55-.131 1.098-.267 1.649-.394.072-.017.17-.015.228.022.158.103.298.078.432-.061a1.11 1.11 0 01.32-.21c.085-.04.184-.052.277-.072.167-.035.211-.133.187-.297-.039-.26-.053-.524-.088-.785-.03-.227-.077-.453-.121-.71m8.473-4.896l-.227.149.874.308.021-.264h.408l.022-.06-.738-.334.2-.123-.212-.477.585-.121-.018-.147.79.042-.241-.578.065-.054.977.404-.128.2c.156.055.297.106.468.169l-.026-.312c.09.085.154.138.206.19l.55.356c.637.268 1.257.583 1.859.924.258.146.496.301.795.356.173.032.332.135.498.204.042.017.088.04.13.036.165-.018.298.025.456.097.546.249 1.09.51 1.692.617.612.11 1.216.265 1.824.396.128.028.244.095.39-.005.101-.07.453.236.47.383.013.12-.183.374-.316.377-.217.004-.436-.035-.651-.018-.124.01-.242.093-.363.142l.011.077c-.096-.05-.188-.133-.288-.142-.176-.016-.366-.02-.531.033a.553.553 0 01-.537-.084c-.088-.062-.214-.129-.298-.071l-1.458.36c-.884-.236-.61-.286-.82-.189.103.062.177.11.256.151l.035.38c-.856.644-1.824.872-2.871.721a6.42 6.42 0 01-1.337-.351c-.214-.08-.372-.308-.555-.469l-.007-.011c-.23-.589-.73-.833-1.28-1.013-.11-.036-.218-.079-.373-.135l.223-.089-.002-.075c-.068 0-.138-.009-.204.002-.11.018-.19.026-.243-.113-.03-.081-.138-.14-.221-.193-.165-.104-.38-.161-.495-.302-.17-.205-.374-.253-.606-.275-.224-.02-.394-.103-.472-.336-.022-.065-.096-.126-.161-.16-.351-.183-.713-.346-1.059-.538-.12-.067-.2-.202-.303-.3a36.079 36.079 0 00-.647-.603c-.13-.118-.259-.125-.404-.004-.236.197-.48.386-.73.565-.107.077-.238.121-.406.204.102.147.193.288.294.423.226.3.47.602.483.993.006.173-.082.36-.164.522-.059.116-.18.201-.273.3-.434.457-.917.808-1.585.843-.177.01-.355.122-.52.21-.137.073-.126.203-.077.337.056.15.166.124.277.099.396-.089.793-.1 1.183.02.125.039.27.1.344.198.087.118.181.314.138.423-.05.125-.236.239-.382.274-.278.065-.57.067-.855.103-.344.043-.417.11-.366.443.077.51.19 1.013.286 1.503.528-.1.999-.207 1.475-.271.22-.03.452.031.68.032.144 0 .306-.001.43-.061.253-.123.47-.05.68.072.055.032.085.14.09.217.012.165-.007.333.001.498.003.065.04.13.07.19.038.077.083.149.125.223l-.232.083c-.022.007-.046.009-.09.016l.246.413c-.202-.01-.372.134-.531-.066-.033-.041-.179.003-.271.015-.085.01-.168.027-.252.042l-.03-.062.239-.145c-.237-.134-.433-.087-.588.147-.117.177-.35.215-.525.143-.149 0-.298.007-.447-.002-.197-.012-.403-.064-.518.17l-.014.02c-.38.113-.244.403-.24.662.022 1.485.057 2.97.04 4.456-.01.734-.127 1.467-.191 2.201l.012.34c.048.5-.169.94-.313 1.403-.109.35-.312.596-.563.833-.2.188-.413.372-.561.597a4.793 4.793 0 00-.486.941c-.136.36-.282.637-.7.762-.478.142-.924.387-1.38.597-.048.022-.06.114-.1.163-.239.282-.478.563-.726.837-.026.029-.11.02-.163.008-.253-.062-.505-.132-.76-.2.122-.257.069-.355-.19-.387-.214-.025-.426-.07-.64-.08-.121-.005-.244.046-.367.069-.038.007-.089.023-.115.006-.155-.103-.302-.22-.458-.322l-.347-.115c-.296-.029-.593-.051-.89-.121l.415-.076.02-.09-1.281-.531.295-.127-.317-.106.087-.456c-.177-.058-.177-.058-.306.144-.491-.397-1.012-.623-1.654-.316.003-.278-.196-.285-.329-.27-.32.036-.637-.178-.955-.01-.4-.257-.872-.032-1.28-.194l-1.225.018c-.161.084-.328.024-.49-.013a92.432 92.432 0 01-.972-.23.286.286 0 01-.142-.084c.311-.05.604-.106.9-.196.602-.182 1.225-.289 1.835-.446.205-.052.402-.152.591-.252.074-.039.177-.16.16-.204-.03-.083-.135-.19-.215-.195a5.619 5.619 0 00-.774.017c-.198.015-.395.068-.592.068-.066 0-.132-.11-.215-.186l-.019-.002c-.758.277-1.552.16-2.331.211l-.047-.001c-.28-.282-.595-.076-.896-.067-.04.001-.086.009-.118-.008-.235-.13-.484-.082-.734-.084-.228-.001-.429.03-.587.203-.112.123-.237.152-.405.132-.85-.105-1.476-.501-1.974-1.474l-.236-.861c-.027-.132-.152-.261-.248-.433l.5.176c-.046-.125-.064-.208-.105-.277-.217-.367-.576-.567-.931-.768-.118-.066-.164-.14-.167-.28a.54.54 0 00-.112-.322c-.255-.298-.547-.555-.967-.643l.047-.368c.302.274.564.514.828.752.254.23.51.457.763.688l.166.209c.288.48.684.855 1.166 1.135a5.66 5.66 0 011.313 1.022c.298.318.702.422 1.144.32l.792-.09c1.009-.048 2.022-.042 3.005-.4l.908-.132c.05-.004.094-.036.138-.06.123-.065.244-.134.368-.195.096-.047.195-.086.293-.128.035-.015.08-.047.105-.035.226.107.328-.062.397-.138.255-.032.453-.05.649-.081.267-.042.533-.097.8-.139.082-.013.168-.002.257-.002 0 .058.008.085-.001.104-.119.239-.084.156.13.247.261.112.465.055.696.002l.068.01c.13.24.327.14.523.078.017.067.018.123.044.163.121.184-.002.217-.143.238-.184.026-.373.031-.552.076-.285.072-.588.005-.745-.21h.367l.009-.066c-.179-.126-.386-.124-.613-.119.133.322.1.365-.229.356-.095-.002-.191.01-.287.016l-.003.073.705.138.023.24.342-.036-.1.207c.083.011.152.039.215.027.236-.045.468-.096.696.035l.091.005c.26-.242.579-.072.864-.127.101-.02.205-.024.308-.04.13-.022.268-.043.127-.268l.565.123c.052.02.168.025.194.076.1.196.243.174.405.12.045-.015.09-.031.134-.05.37-.155.37-.155.444.181.74-.348 1.54-.393 2.343-.436l.395-.124c.316-.198.624-.408.923-.63.182-.134.341-.3.509-.454l.022-.076c-.062-.312.229-.422.35-.63.172-.291.282-.617.415-.93.028-.065.021-.15.06-.205.436-.632.464-1.38.609-2.096a7.5 7.5 0 00.122-.756 3.246 3.246 0 00-.006-.594c-.025-.281-.075-.56-.104-.842-.013-.134-.053-.203-.205-.19a3.762 3.762 0 00-1.39.361c-.249.124-.534.267-.688.561-.064.122-.242.196-.383.263-.54.257-.934.693-1.334 1.11-.306.318-.52.722-.81 1.058a1.31 1.31 0 01-.556.374c-.228.075-.488.057-.735.074-.045.004-.104 0-.138-.025-.292-.229-.597-.445-.867-.698-.614-.577-.645-1.34-.56-2.096.053-.472.348-.793.78-.981l.857-.4c.766-.43 1.526-.872 2.287-1.311a123.63 123.63 0 001.509-.881c.049-.03.071-.104.106-.158-.064-.01-.145-.05-.189-.024-.272.158-.562.3-.797.505-.55.476-1.127.396-1.506-.235-.11-.184-.261-.344-.362-.532-.072-.134-.143-.304-.124-.445.042-.303.132-.603.226-.896.023-.074.127-.134.206-.176.302-.16.61-.308.914-.465.032-.016.052-.056.102-.114-.292-.13-.373-.388-.462-.654-.036-.107-.153-.186-.263-.313-.053.113-.074.18-.113.234-.062.088-.143.243-.203.237-.18-.018-.146-.182-.146-.32 0-.113-.033-.226-.052-.339l-.095.002-.071.273c-.28.05-.398-.034-.465-.326-.081-.352.028-.58.33-.653.309-.074.613-.11.905.09.17.117.768.002.93-.129.089-.07.206-.11.314-.15.288-.109.575-.215.867-.31.147-.047.302-.103.422.08.04.061.144.08.219.118l.03-.05-.156-.362c.216-.094.446-.168.648-.288.514-.305 1.008-.644 1.525-.945.354-.207.717-.424 1.106-.544.304-.095.573-.23.827-.403.208-.142.393-.32.578-.473-.416-.402-.893-.734-1.187-1.185-.294-.449-.404-1.017-.616-1.589l.353.1c.071-.175.193-.201.363-.115.489.249.98.492 1.474.732.315.153.64.29.953.447.127.063.196.04.28-.069a1.64 1.64 0 01.324-.315c.048-.036.15.011.217-.01.125-.04.27-.075.356-.161.084-.084.178-.201.072-.37-.047-.075-.005-.252.057-.341.204-.294.457-.556.652-.856.161-.248.267-.532.387-.78-.33-.289-.604-.21-.882-.038-.35.215-.628.492-.779.88-.102.264-.172.541-.293.795-.207.063-.294.09-.5.155-.324-.201-.64-.416-.954-.631-.048-.033-.107-.095-.109-.145-.01-.294-.009-.588 0-.882.002-.042.063-.087.103-.123.278-.25.554-.5.838-.742a.705.705 0 01.35-.158l-.293.444.079.059 1.302-1.532c.223.184.243.17.342-.161.178.124.17.115.022.259-.21.205-.408.425-.61.638l.06.094c.174-.06.362-.096.521-.184.39-.217.8-.252 1.225-.181l1.052.747c.173.305.4.584.395.967-.007.435-.215.776-.478 1.093-.219.265-.458.513-.674.78-.246.305-.465.632-.718.93-.084.1-.234.148-.36.206-.119.055-.247.094-.37.14l.038-.155-.063-.054c-.084.093-.18.178-.24.284-.012.02.111.155.19.18.334.104.677.181 1.013.279.61.177.773.535.545 1.129a.415.415 0 00.015.316c.159.27.346.525.537.806m-32.944 1.836l-.016.065.557.196c-.119-.248-.311-.303-.54-.26m5.065-4.655c.08.112.119.213.16.214.15.002.315-.006.407-.214zm-5.741 1.604c.256.219.598.207.689 0zm5.616-1.504l-.516-.326-.021.042.225.463c.019-.018.055-.065.103-.093.06-.035.128-.054.21-.086m-6.175.683l-.007-.071-.9.063.011.108c.077-.012.154-.024.23-.039.142-.026.295-.1.383.1.008.018.11.017.146-.007.055-.037.092-.102.137-.154m1.068.23l.016-.07-.793-.182c.042.372.405.417.777.252m-2.17-.871c.046.233-.117.294-.32.312-.096.008-.192.005-.286.02-.038.005-.072.043-.108.066.194.043.368.048.541.04a.363.363 0 00.176-.056c.292-.198.603-.129.913-.074.153.026.306.056.459.085l.031-.111c-.071-.027-.14-.07-.213-.077-.221-.023-.446-.02-.666-.053-.087-.013-.164-.092-.264-.152zm-.115 2.249l.003.046c.156 0 .312-.003.467 0 .248.007.54-.082.609.317l.267-.198-.16-.287c.176-.028.353-.011.289-.252-.453-.047-.91-.129-1.384.043l.25.185-.34.146m9.002-1.385c-.31-.114-.593-.223-.882-.321-.252-.086-.552.031-.657.279-.03.07.021.228.086.272.087.06.225.075.337.066.302-.025.6-.085.901-.106.155-.01.218-.064.215-.19m-5.45 1.355c-.063.28-.2.37-.374.403-.16.03-.321.04-.482.058.418.118.84.195 1.264.245.1.012.224-.052.313-.114.094-.066.16-.172.256-.283-.207-.103-.443-.199-.656-.332-.402-.25-.857-.029-1.267-.183-.052.163.02.193.15.192.257-.002.513.009.796.014m2.573-2.533c-.026.296-.28.353-.481.467l.294.266c.145-.032.334-.047.496-.122.098-.046.163-.18.219-.286.007-.014-.125-.103-.193-.156-.054-.041-.11-.08-.208-.154.126-.046.202-.087.282-.1.388-.063.77-.199 1.176-.057.113.038.27-.041.403-.076.075-.019.142-.07.218-.086.39-.081.782-.156 1.174-.23a1.03 1.03 0 01.318-.01c-.228.18-.447.35-.35.695.19-.04.381-.087.575-.118.198-.031.226.025.19.221-.043.23-.218.459-.037.706.004.006-.111.139-.172.14-.096.003-.192-.064-.29-.088-.11-.026-.224-.037-.336-.055l-.02.08.24.164-.338.134c.011.284-.015.281-.298.218-.179-.04-.378 0-.566.02-.206.023-.41.085-.615.09a1.75 1.75 0 01-.487-.082c-.13-.035-.242-.103-.038-.236-.222-.042-.885.219-.968.368-.032.057-.037.129-.057.2l.401.105c-.187.178-.502-.038-.586.267-.054.195-.1.39-.171.666l-.513.031-.023.04c.147.054.29.136.441.154.229.027.463.002.694.012.191.01.405-.032.519.202.017.036.113.05.172.047.286-.01.57-.035.857-.044.057-.002.153.03.165.069.02.06.007.156-.032.206-.067.086-.173.141-.248.223-.123.133-.243.244-.094.47.158.239-.256.837-.537.785-.28-.051-.481.064-.687.202-.179.12-.345.23-.59.194-.11-.017-.241.096-.33.135l.208.387-.054.063c-.454-.053-.906-.113-1.361-.157-.2-.02-.427-.105-.52.209-.044.154-.236.102-.416-.122.054-.02.105-.034.15-.059a.245.245 0 00.1-.109c-.187-.012-.362-.265-.566.034-.05.074-.32.062-.452.004-.286-.123-.548-.294-.88-.26-.368.038-.738.066-1.106.106-.057.006-.153.042-.158.076-.042.283-.285.301-.466.3-.605-.004-1.098.298-1.62.528l-.039.026c-.2.376-.558.33-.9.346-.518.026-1.038.045-1.551.112-.556.072-.951.373-1.13.933-.098.31-.375.434-.652.552-.842.36-1.682.308-2.539.043-.693-.215-1.275-.54-1.569-1.245a.613.613 0 00-.1-.163c-.528-.61-.632-1.337-.633-2.111 0-.393-.102-.786-.143-1.18-.063-.599-.048-1.186.15-1.772.1-.293.098-.628.097-.944 0-.123-.12-.25-.197-.367-.07-.106-.164-.196-.235-.301-.155-.23-.125-.316.073-.508.12-.115.187-.28.288-.416.062-.085.13-.192.219-.224.138-.05.296-.06.446-.062.558-.006 1.117-.022 1.674.003.812.037 1.625.09 2.434.169.537.052 1.072.148 1.603.25.809.156 1.621.107 2.436.085a262.41 262.41 0 014.047-.076c.244-.002.494.05.732.111.637.167 1.283.128 1.929.108.327-.01.653-.045.98-.065.05-.004.102.012.152.019" fill="#fff"/><path d="M34.793 5.489l-.088.011.034.506.098-.008-.044-.51m-1.21-1.23l.087.113c.09-.063.186-.12.262-.195.015-.014-.05-.108-.078-.165l-.271.247m4.122.73c.15.245.382.237.658 0zm-5.808 4.604c-.37.234-.37.234-.359.442h.457a356.7 356.7 0 01-.098-.442m1.215-1.79c.4-.018.803-.028 1.219-.264-.498-.197-.832.173-1.22.263m1.479.025c-.444.002-.63.033-.439.475l.281-.057.123.236.035-.018zm4.093-2.693c.17-.035.326-.066.481-.1.2-.044.388-.093.222-.368-.037-.061-.023-.152-.032-.229-.519.022-.793.301-.671.697m-4.599 4.15l-.043.038c.053.076.115.147.153.23.016.037-.019.097-.03.146-.05-.012-.135-.013-.142-.037-.083-.27-.281-.227-.487-.204-.16.018-.343.066-.416-.167-.01-.03-.11-.05-.166-.043-.11.013-.217.047-.324.076-.18.05-.158.156-.06.262.051.056.128.087.207.139.025-.18.074-.306.244-.2l.017.342.246-.1.152.188-.029-.329c.454-.103.48-.091.514.2l.453.125.054-.503a95.83 95.83 0 01-.343-.163M32.838 5.38c.026.02.076.084.133.092.21.03.424.07.631.047.18-.019.357-.104.522-.185.069-.034.159-.146.146-.2-.035-.145-.12-.278-.19-.412a.488.488 0 00-.12.054c-.066.045-.124.1-.19.145-.127.088-.233.194-.418.057-.149-.111-.522.158-.514.402m.202-2.271l-.044.398.841.058c0-.319.002-.62 0-.921-.002-.208-.064-.433-.005-.62.176-.561.025-1.132.08-1.705h.376l.168-.276c.4.192.67.467.86.848a3.24 3.24 0 01.355 1.685c-.012.188.008.386.06.566.037.132.122.298.233.352.172.085.384.111.58.118.294.011.59-.005.883-.033.07-.007.129-.108.231-.2a50.246 50.246 0 01-.93-.216l.01-.077c.472.041.93.1 1.388.111.198.005.412-.06.595-.143.348-.159.7-.127 1.054-.076.09.012.17.09.253.138l-.015.089-.844.08c.271.141.42.398.717.235l.134.057c.023.121.023.246.032.392-.47-.14-.586-.11-.808.225.2-.016.355-.037.51-.037.066 0 .152.023.195.069.064.065.097.16.16.27-.293.102-.087.323-.14.514-.096 0-.198-.008-.297.004-.054.007-.12.037-.147.08-.017.027.016.123.048.137.28.12.481.387.806.427.192.023.192.036.188.413-.12-.05-.227-.08-.317-.137-.132-.085-.24-.062-.393-.035-.33.06-.608.386-.985.209-.107-.05-.216-.095-.327-.144.123-.2-.007-.409-.254-.424-.225-.014-.425-.024-.593-.234-.076-.094-.295-.082-.452-.1-.187-.023-.349-.065-.384-.286-.035-.215.09-.582.243-.627.093-.029.21.021.36.042l.12-.444-.97-.054.217.353-.252.036c-.11.015-.202.037-.19.187.003.047-.044.128-.086.144-.303.112-.485.325-.566.678l-.16-.224-.078.002c0 .104-.033.226.01.306.036.064.172.115.253.102.147-.024.201.033.199.156-.006.342-.008.684-.04 1.024-.032.344-.031.37.308.409.38.045.761.083 1.145.124-.115.135-.282.122-.455.112-.185-.01-.383-.04-.519.223.145.012.251.017.356.032.155.021.308.066.463.07.126.003.257-.026.376-.07.023-.01-.013-.153-.004-.232.006-.05.033-.118.072-.142a.28.28 0 01.185-.029c.343.071.69.128 1.022.235.399.128.58.484.73.84a4 4 0 01.276 2.084c-.065.512-.112 1.027-.18 1.539-.037.274-.097.546-.156.816-.013.057-.07.103-.135.194l-.114-.353-.077-.023-.262.602c-.007 0-.06-.022-.105-.011-.455.1-.64-.26-.687-.638-.096-.772.035-1.543.004-2.315-.014-.361-.083-.465-.44-.452-.199.007-.397.042-.596.044-.271.004-.535-.02-.686-.305-.022-.04-.127-.082-.161-.063-.273.148-.52-.11-.788-.045-.037.008-.102-.1-.174-.176-.142.016-.253.051-.122.257.118.184-.026.304-.14.498l-.145-.364-.05.003-.074.506 2.464.076c.049.192-.136.213-.254.259-.007.116.01.225-.025.312-.05.13-.115.202-.283.073-.25-.194-.523-.046-.76.064-.221.103-.419.259-.62.4a.399.399 0 00-.166.464c.022.074.084.17.148.188.046.015.125-.081.188-.128.17-.008.358 0 .54-.032.391-.07.563-.003.478.467-.047.259-.157.546-.024.833.022.05-.078.22-.148.239-.275.073-.56.109-.83.156-.178-.244-.381-.236-.488.016-.074.176-.187.364-.033.564l-.008.123c-.072.011-.147.006-.23.006-.246.257-.536.405-.917.277-.363-.121-.682-.1-.937.247-.07.094-.241.113-.377.171.126.18.309.071.487.087l-.194.174c.195.115.367.24.557.315.076.03.25-.019.284-.083.125-.23.195-.093.28.018.094-.279.358-.213.554-.269.142-.04.297-.032.455-.047v-.282l.052-.003.029.373c-.384.164-.384.164-.318.578.156-.124.3-.212.41-.331.26-.281.62-.391.98-.275.242.078.395.013.484-.193l-.058.898.215-.023.027.042-.316.261h.385l.042.086c-.107.07-.208.19-.32.202-.276.028-.447.198-.614.378-.195.209-.54.262-.748.078-.068-.058-.085-.175-.157-.337l-.11.401c-.214-.035-.444-.037-.645-.114-.266-.102-.502.007-.75.03l-.086.029c-.142.282-.375.201-.604.163-.069-.012-.17-.009-.212.033-.151.15-.31.131-.455.025-.23-.168-.442-.363-.67-.536-.139-.106-.282-.23-.443-.277-.306-.089-.383-.31-.408-.575-.028-.291-.057-.585-.043-.876.007-.126.122-.246.188-.369l.278.157.588-.612c.397.098.699-.213 1.004-.444-.02-.092-.036-.191-.067-.286a.23.23 0 00-.093-.119c-.192-.107-.248-.265-.232-.48.017-.222.003-.447-.006-.67-.008-.184.104-.316.278-.28.216.046.36-.027.516-.176.092-.087.268-.081.403-.127.117-.04.229-.095.343-.143l.01-.079c-.09-.042-.182-.121-.272-.119-.317.008-.634.054-.952.064-.3.01-.602.003-.902-.019-.19-.013-.271-.163-.331-.333-.081-.23-.112-.224-.27-.046a.834.834 0 01-.25.171c-.138.07-.283.125-.403.178l-.335-.955c.072-.128.162-.22.174-.323.04-.343.338-.412.558-.567a2.76 2.76 0 00.312-.248c.286-.275.54-.574.695-.95a.339.339 0 01.189-.165c.233-.078.471-.147.712-.197.365-.076.735-.129 1.102-.2.19-.035.363-.315.345-.535a.394.394 0 00-.426-.366c-.375.013-.757.013-1.122.087-.749.15-.964.418-1.083 1.154-.017.101-.026.205-.056.303-.19.626-.191.625-.843.603-.25-.009-.566-.28-.643-.616-.126-.558-.207-1.125-.33-1.684-.072-.334-.19-.657-.28-.987-.09-.322-.109-.62.107-.928.155-.222.232-.505.312-.77.088-.292.237-.463.564-.481.261-.014.52-.124.78-.121.617.008 1.234.057 1.88.09M44.944 7.44c.402-.334.785-.654 1.147-.957-.377-.682-.344-1.29-.29-1.907.034-.404.032-.811.036-1.217.001-.185-.085-.252-.292-.232-.305.029-.617-.016-.923.009a.49.49 0 00-.335.191 9.247 9.247 0 00-.565 1.044c-.21.462-.392.938-.578 1.411-.09.232-.188.451-.413.59-.036.021-.06.096-.057.144.057.737-.11 1.44-.314 2.14-.089.302-.153.613-.25.914-.053.165-.342.273-.546.227-.199-.045-.245-.19-.263-.375-.034-.332-.101-.66-.138-.992-.046-.419-.121-.845.14-1.23l.022-.043c.1-.629.57-1.087.776-1.668.017-.045.074-.075.111-.113.074-.077.171-.141.215-.232.19-.388.358-.785.542-1.176.29-.619.693-1.16 1.141-1.67.068-.077.135-.158.188-.246.243-.394.575-.698.939-.975.106-.08.186-.2.299-.266.097-.057.234-.105.337-.082.525.118.842.505 1.142.917.46.631.505 1.34.415 2.076-.057.464-.03.89.299 1.274.173.201.264.472.409.7.238.377.152.75.001 1.12-.095.234-.252.34-.536.318-.635-.05-1.256.022-1.838.321-.23.118-.485.23-.82-.014m-22.205 7.29l.172-.142c-.08-.187-.08-.187-.594-.183l-.198-.561.784-.282c.062-.262-.345-.163-.379-.441l-.12.394c-.169-.337-.323-.66-.11-1.037l-.398-.312c.204-.059.357-.106.511-.147.853-.228 1.707-.454 2.56-.683.073-.02.141-.06.189-.082-.008.124-.004.247-.028.364a.5.5 0 01-.112.23c-.174.19-.37.359-.536.554a1.372 1.372 0 00-.217.4c-.016.04.05.136.102.17.061.04.149.04.286.072l-.987 1.232.208.06c-.036.038-.063.076-.097.101-.212.16-.49.254-.535.575-.002.014-.168.038-.224.003-.094-.059-.162-.162-.277-.285" fill="#fff"/><path d="M38.834 15.044l-.277-.029c.01.114.039.218.02.312-.026.14-.053.357-.14.392a.795.795 0 01-.536 0c-.16-.062-.289-.22-.41-.357-.223-.253-.403-.553-.802-.6l.031-.06.285-.125-.435-.65c.259-.183.512-.071.773.022.04-.243-.364-.384-.104-.631.721.182 1.498 1.012 1.595 1.726M17.458 31.395c.113.148.238.289.337.446.205.322.395.654.592.981.02.034.04.072.068.097.343.306.682.614.966.981.196.254.493.368.801.444.091.023.182.05.272.074l-.005.071c-.173-.011-.356.008-.518-.04a15.446 15.446 0 01-1.128-.394.621.621 0 01-.259-.196 19.026 19.026 0 01-.764-1.062 1.948 1.948 0 01-.228-.541c-.076-.272-.123-.553-.183-.83zM14.39 27.03c-.263-.278-.693-.348-.877-.73-.016-.035-.12-.027-.137-.062a.474.474 0 01-.054-.237c.006-.087.048-.086.155-.076.19.017.295.114.345.25.114.31.367.502.563.743l.048.07zm15.58 9.21c.194-.063.387-.13.583-.186.033-.01.11.02.113.038.005.044-.008.105-.038.136-.145.149-.426.174-.659.012m.134-.418c-.294.068-.48-.176-.77-.195.31-.19.593-.11.77.195m-15.246-8.484l.46.466-.079.08-.449-.473z" fill="#fff"/></svg>