<svg xmlns="http://www.w3.org/2000/svg" width="63" height="63" viewBox="0 0 16.669 16.669"><path d="M.233 8.333a8.117 8.117 0 1116.234 0 8.117 8.117 0 01-16.234 0" fill="#ed1639"/><path d="M8.305.216A7.514 7.514 0 01.478 6.35 8.119 8.119 0 018.305.216m7.917 6.134A7.514 7.514 0 018.395.217a8.12 8.12 0 017.827 6.135M8.305 16.45a8.118 8.118 0 01-7.827-6.134 7.514 7.514 0 017.827 6.134m7.917-6.134a8.119 8.119 0 01-7.827 6.134 7.514 7.514 0 017.827-6.134" fill="#fff"/><path d="M16.466 8.333a8.12 8.12 0 01-8.072 8.117h-.089A8.119 8.119 0 01.478 6.35 8.12 8.12 0 018.305.216h.09a8.12 8.12 0 018.071 8.117z" fill="none" stroke="#ed1639" stroke-width=".366" stroke-miterlimit="10"/><path d="M5.445 8.333a2.905 2.905 0 115.81.001 2.905 2.905 0 01-5.81 0" fill="#fff"/><path d="M.233 8.333a8.117 8.117 0 1116.234 0 8.117 8.117 0 01-16.234 0z" fill="none" stroke="#ed1639" stroke-width=".366" stroke-miterlimit="10"/></svg>