<svg xmlns="http://www.w3.org/2000/svg" width="333" height="668" viewBox="0 0 88.106 176.742"><path d="M29.884 161.516c.536-1.6 3.125-1.889 3.182-3.499-2.914 1.291-5.157 3.779-7.369 6.317.777 1.486 1.83 3.457 3.58 3.604 2.062.174 3.794-2.965 4.87-3.825-1.882 2.12-5.138.02-4.263-2.597m7.607-.057c1.274-1.064 3.086-1.17 4.27-2.393-.125-1.284.268-2.854-1.02-3.484-.658 2.533-2.662 4.144-3.25 5.877m6.283-20.205c2.048.257 3.663-2.225 1.596-3.546-.541.985-1.8 2.158-1.596 3.546m1.035-17.887c-2.14 1.583-5.584 2.24-5.785 6.364 3.391 1.276 4.22-3.246 7.41-2.909 1.454.154 5.886 2.079 6.67 3.273.467.712.324 2.153.012 2.8-1.163 2.407-4.938.6-5.769 4.171 2.664 1.469 6.867 2.073 7.706 4.563 1.84-2.093 4.297-3.086 6.212-5.043-3.823-5.337-8.285-10.319-16.456-13.22m6.004-23.476c2.869.001 3.768-5.164 1.875-6.665-2.235 1.14-1.376 4.284-1.875 6.665M62.11 85.289c-2.236.276-4.122 1.175-5.588 2.822l2.591.73c.91 1.725 2.18 4.03 1.823 6.304-.422 2.688-3.006 4.338-4.2 6.41.979.23 1.847.521 2.539.914 2.063-6.354 2.834-11.983 2.835-17.18m-6.415-18.384c.854-.61 2.2-1.816 1.966-3.442-.683.915-2.199 1.817-1.966 3.442m22.19-31.313c-2.166 2.035-6.642 3.88-5.803 8.556 2.233-2.605 5.534-4.765 6.862-8.057-.16-.276-.597-.394-1.059-.499M75.902 22.05c-2.413 1.663-4.95 3.054-7.614 5.05-6.671 5.006-16.663 10.516-18.874 21.659-1.04 5.244-3.492 10.496-5.269 15.895-4.078 12.38-6.781 25.54-8.43 37.78 2.811.563 4.715-.489 7.422-.11.218-1.425-.82-2.9-.52-4.54.45-2.477 2.657-3.434 3.703-5.352 1.387-2.55 2.026-6.006 3.105-8.915 1.134-3.052 2.23-5.96 3.426-8.624-1.368.251-2.861.275-4.305.389-1.172-1.579-1.763-3.481-2.268-5.433 1.047-.726 2.124-1.402 3.454-1.626 1.644-4.385 4.594-6.447 7.838-7.983-.195-1.305 1.594-2.344 1.412-3.597-1.351-.275-3.093 1.155-5.282.313-1.422-2.044-2.09-5.61-.798-7.816 2-3.419 5.528.67 8.584.018 2.769-.593 3.802-4.007 4.727-6.861-4.08-1.928-2.436 4.881-5.207 5.727-1.625.496-5.166-1.514-5.559-2.962-.442-1.632.9-3.683.347-5.495.726-.936 2.151-1.875 3.737-3.344 1.092-1.011 2.592-3.367 3.737-3.344 1.915.038 2.132 2.056 2.077 3.98 1.055.121 1.94-.063 2.718-.433 1.45-2.022-.48-4.474-.236-6.26.37-2.714 2.391-4.747 5.744-3.378.894-1.439 2.928-2.097 2.834-4.396-.234-.077-.19-.31-.503-.342m-12.559-9.324c1.636-.604 3.35-1.07 4.507-2.529-2.004-2.118-4.322-.403-4.507 2.529m2.968-10.552c.205.562.362 1.15.034 2.008 2.573 1.571 1.832 5 5.757 5.813.396 1.39 1.291 2.498 1.468 4.01-2.228 2.442-5.217 4.38-8.56 5.58-1.471.53-4.04.763-4.803 1.447-1.76 1.586-2.187 5.083-1.266 6.635 7.397-4.878 15.506-8.49 22.525-14.038.667-1.964 1.886-2.938 2.968-4.16 3.889.932 3.51 10.588.612 14.154-1.95 2.403-6.162 1.793-7.559 4.866-.802.422-1.863.386-2.505 1.093.112.924.343 1.783.909 2.453 2.601.027 5.454-3.957 8.357-3.441 2.98.528 5.002 6.212 2.997 9.232-1.87 2.816-7.643 4.54-8.208 7.878-.272 1.6 2.708 5.932-.15 8.347-5.509-.279-9.898 1.44-14.41 2.94.134 1.587 1.686 2.379 2.84 3.394-.27 3.316-2.529 3.088-3.864 4.507 1.54.333 2.633-.126 3.882-.308.393-1.286.036-2.624.937-3.331 1.492 2.307 5.593 4.828 4.339 8.012-.66 1.673-2.741 1.918-3.922 3.29-7.558-3.562-9.714 2.877-12.38 8.505 2.887.034 4.104-2.878 6.75-2.695 1.908.13 3.077 1.374 4.05 1.937 2.19 1.269 4.557 2.872 3.563 5.797-.55 1.617-2.6 2.22-3.286 3.869-.326.785-.14 1.52-.254 2.325-.463 3.285-1.748 6.864-2.441 10.1 3.17.69 6.073-.493 8.457 1.18 2.195 1.541 3.523 7.65 1.1 10.297-2.722 2.97-8.775 4.14-14.023.851.547-1.183 1.852-.817 2.793-1.411 1.406-.89 2.072-2.741 3.605-3.582-4.98-.63-9.749-.887-13.814.11 1.141 1.802 4.334 2.454 4.906 4.575-1.104 4.519-4.064 5.726-8.035 5.13 3.924 2.897 12.72 3.565 14.744 7.944.66.098 1.018.365 1.43.601 1.397 1.815 2.2 3.963 4.51 5.264.628 3.031-1.114 6.665-2.122 10.389-3.698-.573-6.468.516-9.637.886-1.088-.898-2.342-1.701-3.708-2.441-2.884 5.327-9.318 4.324-14.265 5.975 1.898 2.717 8.811 4.15 9.752 7.936.246.985.15 3.625-.612 5.02-.834 1.527-2.879 1.295-4.667 1.684-5.243 3.624-11.087 6.178-14.209 13.584-3.35 1.357-7.116-1.708-5.674-5.392-1.313-3.42-7.403-4.162-6.745-8.69 1.073-1.011 1.551-3.195 2.915-3.974.656-.374 1.236.04 2.06-.22 4.122-1.29 5.27-8.221 10.777-6.356.58-.438-.497-1.274-.694-1.794-1.268.18-2.8.546-4.646.892-1.402.263-3.606 1.017-4.592.704-1.75-.551-2.806-3.833-1.979-5.749.692-1.603 2.908-1.744 4.32-2.579 2.726-1.611 5.445-4.217 8.938-4.08-.793 1.645-2.403 1.83-3.18 3.501.368.857 2.017.39 3.013.649.983-1.397 2.161-2.448 2.57-4.872-3.468-.42-8.625-1.482-5.966-5.073-4.822 1.97-10.995 7.153-16.04 10.87-1.796 1.323-3.839 2.432-5.241 3.72-1.702 1.56-4.549 5.058-7.485 3.886-1.44-.574-2.404-3.601-2.135-5.194.57-3.38 3.81-4.621 4.645-7.284 4.906-3.298 8.952-8.128 13.687-11.73.875 1.842-1.21 4.868-1.741 6.9 8.113-1.745 14.73-8.572 21.443-13.743-.392-1.443-3.422-1.407-4.738-2.331 1.686-1.705 4.208.137 6.126-.476 1.867-.595 2.277-2.444 4.056-3.053.203-1.881-.243-3.398-.365-5.096-3.685 1.527-9.573-1.245-12.01 2.214-2.106 2.992-1.613 7.844-4.365 10.559-1.994-2.417-.95-6.536-1.679-9.662-1.869.85-3.441.065-5.756.58-1.415.314-2.983 2.405-4.216 2.21-2.16-.344-2.457-5.208-2.089-6.78.802-3.423 4.633-4.98 6.259-6.63 2.003.593 2.516 2.019 3.025 3.447 1.399-.1 2.666-.435 3.72-1.15C31.735 86.388 38.644 67.581 44 48.833c-4.769 2.707-7.406 11.622-12.113 15.37-1.189-1.388-2.443-2.805-2.608-4.93-.067-.87.367-1.805.359-2.695-.01-1.072-.603-2.032-.33-3.09.608-2.354 3.821-5.336 5.674-7.392 4.119-4.572 7.97-9.03 12.015-13.598 1.987-2.246 4.776-4.2 5.253-7.313-3.04-.527-4.404 4.017-7.601 1.457-1.462-2.175.056-5.328.098-8.161.023-1.613-.789-3.209.456-4.467 2.539 1.005 3.086 3.905 5.802 4.23 2.119.251 3.581-1.75 5.485-2.453.078-2.086 1.43-4.242 1.874-6.665.272-1.482-.31-3.128-.018-4.199.356-1.294 2.94-3.543 4.449-3.743 1.068-.14 2.447.473 3.517.99" fill="#231f20" fill-rule="evenodd"/><path d="M28.885 160.596c.536-1.6 3.125-1.889 3.182-3.499-2.914 1.291-5.157 3.779-7.37 6.317.778 1.487 1.831 3.457 3.581 3.604 2.062.174 3.794-2.965 4.87-3.825-1.882 2.12-5.138.02-4.263-2.597m7.607-.057c1.274-1.064 3.086-1.169 4.27-2.393-.125-1.284.268-2.854-1.02-3.484-.658 2.533-2.662 4.145-3.25 5.877m6.283-20.205c2.048.257 3.663-2.224 1.596-3.546-.541.985-1.8 2.158-1.596 3.546m1.035-17.887c-2.14 1.583-5.584 2.24-5.785 6.365 3.391 1.275 4.22-3.247 7.41-2.91 1.454.154 5.886 2.079 6.67 3.273.467.712.324 2.153.012 2.8-1.163 2.407-4.938.6-5.769 4.172 2.664 1.468 6.867 2.072 7.706 4.562 1.84-2.093 4.297-3.086 6.212-5.043-3.823-5.337-8.285-10.319-16.456-13.22m6.004-23.476c2.869.002 3.768-5.163 1.875-6.665-2.235 1.14-1.376 4.284-1.875 6.665m11.298-14.601c-2.236.276-4.122 1.175-5.588 2.823l2.591.729c.91 1.725 2.18 4.03 1.823 6.304-.422 2.689-3.006 4.338-4.2 6.411.979.229 1.847.52 2.539.913 2.063-6.353 2.834-11.983 2.835-17.18m-6.416-18.383c.855-.611 2.2-1.817 1.967-3.443-.683.916-2.199 1.817-1.967 3.443m22.191-31.314c-2.166 2.035-6.643 3.88-5.803 8.557 2.233-2.605 5.534-4.766 6.862-8.058-.16-.275-.597-.394-1.059-.499M74.903 21.13c-2.413 1.663-4.95 3.054-7.614 5.05-6.671 5.006-16.663 10.516-18.874 21.659-1.04 5.244-3.492 10.496-5.269 15.895-4.078 12.38-6.781 25.54-8.43 37.78 2.81.563 4.715-.489 7.422-.109.218-1.426-.82-2.9-.52-4.542.45-2.476 2.657-3.433 3.703-5.35 1.387-2.55 2.026-6.007 3.105-8.916 1.134-3.051 2.23-5.96 3.425-8.624-1.367.251-2.86.275-4.304.39-1.172-1.58-1.763-3.482-2.268-5.434 1.047-.726 2.124-1.402 3.454-1.626 1.644-4.385 4.594-6.447 7.838-7.983-.195-1.304 1.594-2.343 1.412-3.597-1.351-.275-3.093 1.155-5.282.313-1.422-2.044-2.09-5.61-.798-7.815 2-3.42 5.528.67 8.584.017 2.769-.592 3.802-4.007 4.727-6.861-4.08-1.928-2.436 4.881-5.207 5.727-1.625.496-5.166-1.514-5.559-2.962-.442-1.631.9-3.682.347-5.495.726-.936 2.151-1.875 3.737-3.344 1.092-1.011 2.592-3.367 3.737-3.344 1.915.038 2.132 2.056 2.077 3.98 1.055.121 1.939-.063 2.718-.433 1.45-2.022-.48-4.474-.236-6.26.37-2.714 2.391-4.747 5.744-3.378.893-1.438 2.928-2.097 2.834-4.396-.234-.077-.19-.31-.503-.342m-12.559-9.324c1.636-.604 3.35-1.07 4.507-2.528-2.004-2.119-4.322-.404-4.507 2.528m2.968-10.551c.205.56.362 1.148.034 2.007 2.573 1.571 1.832 5 5.757 5.813.396 1.39 1.291 2.498 1.468 4.01-2.228 2.442-5.217 4.38-8.56 5.581-1.471.529-4.04.762-4.803 1.446-1.76 1.586-2.187 5.083-1.266 6.635 7.397-4.877 15.505-8.49 22.525-14.038.667-1.964 1.886-2.938 2.968-4.16 3.889.932 3.51 10.588.612 14.154-1.95 2.404-6.162 1.793-7.559 4.866-.802.422-1.863.386-2.505 1.094.112.923.343 1.783.909 2.452 2.601.027 5.454-3.957 8.357-3.441 2.98.528 5.002 6.213 2.997 9.232-1.87 2.816-7.643 4.54-8.208 7.879-.272 1.6 2.708 5.93-.15 8.347-5.51-.28-9.898 1.44-14.41 2.938.134 1.588 1.686 2.38 2.84 3.395-.27 3.316-2.53 3.088-3.864 4.507 1.54.333 2.633-.126 3.881-.307.393-1.287.037-2.625.938-3.332 1.492 2.307 5.593 4.828 4.339 8.012-.66 1.673-2.741 1.918-3.922 3.29-7.558-3.561-9.714 2.877-12.38 8.505 2.887.034 4.104-2.878 6.75-2.695 1.908.13 3.077 1.375 4.05 1.937 2.189 1.27 4.557 2.873 3.563 5.797-.55 1.618-2.6 2.22-3.286 3.869-.326.785-.14 1.52-.254 2.326-.463 3.284-1.748 6.864-2.441 10.1 3.17.69 6.073-.494 8.457 1.18 2.195 1.54 3.523 7.65 1.1 10.296-2.722 2.97-8.775 4.14-14.023.851.547-1.183 1.852-.817 2.793-1.41 1.406-.89 2.072-2.742 3.605-3.583-4.98-.63-9.749-.887-13.814.11 1.141 1.802 4.334 2.454 4.906 4.575-1.104 4.52-4.064 5.727-8.035 5.13 3.924 2.897 12.72 3.566 14.744 7.944.66.098 1.018.365 1.43.601 1.397 1.815 2.2 3.963 4.51 5.264.628 3.031-1.114 6.665-2.123 10.39-3.697-.573-6.467.515-9.636.885-1.088-.898-2.342-1.701-3.708-2.44-2.884 5.326-9.318 4.324-14.265 5.974 1.898 2.718 8.811 4.15 9.752 7.936.246.986.15 3.625-.612 5.021-.834 1.526-2.879 1.294-4.667 1.683-5.243 3.625-11.087 6.179-14.21 13.584-3.349 1.358-7.115-1.708-5.673-5.392-1.313-3.42-7.403-4.162-6.745-8.69 1.073-1.011 1.551-3.194 2.915-3.973.656-.375 1.236.039 2.06-.22 4.122-1.291 5.27-8.222 10.777-6.357.58-.437-.497-1.274-.695-1.793-1.267.18-2.798.545-4.645.891-1.402.263-3.606 1.017-4.592.704-1.75-.551-2.806-3.833-1.98-5.749.693-1.603 2.91-1.743 4.322-2.579 2.725-1.611 5.444-4.217 8.937-4.079-.793 1.644-2.403 1.83-3.18 3.5.368.857 2.017.39 3.013.648.983-1.396 2.16-2.447 2.57-4.871-3.468-.42-8.625-1.481-5.966-5.072-4.823 1.968-10.995 7.152-16.04 10.87-1.796 1.323-3.84 2.431-5.241 3.718-1.703 1.562-4.55 5.06-7.485 3.887-1.44-.574-2.404-3.6-2.135-5.194.57-3.38 3.81-4.621 4.645-7.284 4.906-3.298 8.952-8.128 13.686-11.73.876 1.842-1.209 4.868-1.74 6.9 8.113-1.745 14.73-8.572 21.443-13.743-.393-1.443-3.422-1.406-4.738-2.331 1.686-1.705 4.208.137 6.126-.476 1.867-.595 2.277-2.444 4.055-3.053.204-1.88-.242-3.398-.364-5.096-3.685 1.527-9.573-1.244-12.01 2.215-2.106 2.991-1.613 7.844-4.366 10.558-1.993-2.417-.949-6.536-1.678-9.662-1.87.85-3.441.066-5.756.58-1.415.314-2.983 2.405-4.216 2.21-2.16-.344-2.457-5.208-2.089-6.78.802-3.423 4.633-4.98 6.258-6.63 2.004.593 2.517 2.019 3.026 3.447 1.399-.1 2.666-.435 3.72-1.15C30.736 85.469 37.645 66.662 43 47.914c-4.769 2.707-7.406 11.622-12.113 15.37-1.189-1.388-2.443-2.805-2.608-4.93-.067-.87.367-1.805.359-2.694-.01-1.072-.603-2.032-.33-3.09.608-2.355 3.821-5.336 5.674-7.393 4.119-4.572 7.97-9.03 12.015-13.598 1.987-2.245 4.776-4.2 5.253-7.313-3.04-.527-4.404 4.017-7.601 1.457-1.462-2.175.056-5.328.098-8.16.023-1.613-.789-3.21.456-4.468 2.539 1.005 3.086 3.905 5.802 4.23 2.118.251 3.581-1.75 5.485-2.453.078-2.085 1.43-4.242 1.874-6.665.272-1.481-.31-3.128-.018-4.199.356-1.294 2.94-3.543 4.449-3.743 1.068-.14 2.447.473 3.517.99" fill="#fff" fill-rule="evenodd"/></svg>