<svg xmlns="http://www.w3.org/2000/svg" width="778" height="267" preserveAspectRatio="xMidYMid meet" viewBox="0 0 205.846 70.644"><path d="M28.586 22.298l5.364 16.504h17.354l-14.04 10.2 5.362 16.505-14.04-10.2-14.038 10.2 5.362-16.505-14.039-10.2h17.354z" fill="none" stroke="#7b7979" stroke-width="3.739" stroke-linecap="square" stroke-miterlimit="10"/><path d="M45.127 6.133l3.777 11.623h12.223l-9.888 7.183 3.777 11.624-9.889-7.184-9.885 7.184 3.776-11.624-9.888-7.183h12.222z" fill="none" stroke="#7b7979" stroke-width="3.739" stroke-linecap="square" stroke-miterlimit="10"/><path d="M66.281 19.43l2.716 8.359h8.79l-7.112 5.165 2.717 8.362-7.11-5.167-7.112 5.167 2.715-8.362-7.11-5.165h8.789z" fill="none" stroke="#7b7979" stroke-width="3.739" stroke-linecap="square" stroke-miterlimit="10"/><path d="M28.586 22.298l5.364 16.504h17.354l-14.04 10.2 5.362 16.505-14.04-10.2-14.038 10.2 5.362-16.505-14.039-10.2h17.354z" fill="#fff"/><path d="M45.127 6.133l3.777 11.623h12.223l-9.888 7.183 3.777 11.624-9.889-7.184-9.885 7.184 3.776-11.624-9.888-7.183h12.222z" fill="#fff"/><path d="M66.281 19.43l2.716 8.359h8.79l-7.112 5.165 2.717 8.362-7.11-5.167-7.112 5.167 2.715-8.362-7.11-5.165h8.789z" fill="#fff"/><path d="M46.351 45.035c.95-.94 2.274-1.41 3.968-1.41h26.84l-3.725 3.934H57.247c-.581 0-1.004.162-1.27.487a1.51 1.51 0 00-.366 1.078c.022.397.174.756.452 1.081.278.325.684.487 1.219.487h17.3c1.485 0 2.704.452 3.656 1.357.951.906 1.427 2.113 1.427 3.62 0 1.51-.476 2.716-1.427 3.621-.952.906-2.17 1.358-3.656 1.358h-29.38l3.377-3.759h19.529c.44 0 .766-.15.974-.452.209-.302.314-.627.314-.976 0-.348-.105-.673-.314-.974-.208-.302-.521-.453-.94-.453H50.25c-.72 0-1.405-.116-2.054-.348a5.027 5.027 0 01-1.706-1.009 4.712 4.712 0 01-1.149-1.602c-.279-.626-.418-1.346-.418-2.16 0-1.646.476-2.94 1.428-3.88zm50.824 5.657h13.612l-2.89 3.342H93.868zm15.283-3.133H97.593c-1.322 0-2.454.435-3.395 1.306-.939.87-1.409 1.966-1.409 3.289 0 .65.127 1.266.383 1.845.255.58.597 1.086 1.026 1.515.43.429.935.765 1.515 1.009.58.243 1.206.366 1.88.366h18.311l-3.411 3.76h-22.35a8.31 8.31 0 01-3.342-.68 8.878 8.878 0 01-2.732-1.828 8.498 8.498 0 01-1.845-2.715 8.3 8.3 0 01-.68-3.342c0-1.183.227-2.292.68-3.323a8.355 8.355 0 011.845-2.681 8.802 8.802 0 012.732-1.794 8.517 8.517 0 013.342-.66h25.726zm6.196-3.934h10.548v17.023h-10.548zm37.056 4.822c.22-.127.36-.255.417-.383.059-.128-.006-.243-.19-.35-.186-.104-.535-.155-1.045-.155h-22.35l3.447-3.969h25.935c1.183 0 2.129.29 2.837.87.707.58 1.149 1.243 1.323 1.986.174.742.052 1.45-.365 2.122-.419.674-1.16 1.092-2.229 1.254l-19.424 4.247c-.534.116-.923.325-1.167.626-.243.302-.36.615-.348.94.011.326.14.61.383.853.244.244.598.366 1.062.366h22.21l-3.412 3.795h-26.526c-1.254 0-2.251-.313-2.993-.94-.743-.628-1.167-1.364-1.271-2.212-.104-.847.156-1.71.783-2.593.627-.882 1.67-1.566 3.133-2.053l19.007-4.109a2.87 2.87 0 00.783-.295zm17.875-4.822h30.425v17.023h-10.687v-6.614h-13.02l3.203-3.342h9.817v-3.133h-11.836c-1.067 0-1.6.626-1.6 1.88v11.21h-10.653V47.836c0-1.16.423-2.152 1.27-2.976.847-.823 1.874-1.236 3.08-1.236z" fill="none" stroke="#7b7979" stroke-width="3.739" stroke-miterlimit="10"/><path d="M46.351 45.035c.95-.94 2.274-1.41 3.968-1.41h26.84l-3.725 3.934H57.247c-.581 0-1.004.162-1.27.487a1.51 1.51 0 00-.366 1.078c.022.397.174.756.452 1.081.278.325.684.487 1.219.487h17.3c1.485 0 2.704.452 3.656 1.357.951.906 1.427 2.113 1.427 3.62 0 1.51-.476 2.716-1.427 3.621-.952.906-2.17 1.358-3.656 1.358h-29.38l3.377-3.759h19.529c.44 0 .766-.15.974-.452.209-.302.314-.627.314-.976 0-.348-.105-.673-.314-.974-.208-.302-.521-.453-.94-.453H50.25c-.72 0-1.405-.116-2.054-.348a5.027 5.027 0 01-1.706-1.009 4.712 4.712 0 01-1.149-1.602c-.279-.626-.418-1.346-.418-2.16 0-1.646.476-2.94 1.428-3.88m50.824 5.657h13.612l-2.89 3.342H93.868zm15.283-3.133H97.593c-1.322 0-2.454.435-3.395 1.306-.939.87-1.409 1.966-1.409 3.289 0 .65.127 1.266.383 1.845.255.58.597 1.086 1.026 1.515.43.429.935.765 1.515 1.009.58.243 1.206.366 1.88.366h18.311l-3.411 3.76h-22.35a8.31 8.31 0 01-3.342-.68 8.878 8.878 0 01-2.732-1.828 8.498 8.498 0 01-1.845-2.715 8.3 8.3 0 01-.68-3.342c0-1.183.227-2.292.68-3.323a8.355 8.355 0 011.845-2.681 8.802 8.802 0 012.732-1.794 8.517 8.517 0 013.342-.66h25.726zm6.196-3.934h10.548v17.023h-10.548zm37.056 4.822c.22-.127.36-.255.417-.383.059-.128-.006-.243-.19-.35-.186-.104-.535-.155-1.045-.155h-22.35l3.447-3.969h25.935c1.183 0 2.129.29 2.837.87.707.58 1.149 1.243 1.323 1.986.174.742.052 1.45-.365 2.122-.419.674-1.16 1.092-2.229 1.254l-19.424 4.247c-.534.116-.923.325-1.167.626-.243.302-.36.615-.348.94.011.326.14.61.383.853.244.244.598.366 1.062.366h22.21l-3.412 3.795h-26.526c-1.254 0-2.251-.313-2.993-.94-.743-.628-1.167-1.364-1.271-2.212-.104-.847.156-1.71.783-2.593.627-.882 1.67-1.566 3.133-2.053l19.007-4.109a2.87 2.87 0 00.783-.295m17.875-4.822h30.425v17.023h-10.687v-6.614h-13.02l3.203-3.342h9.817v-3.133h-11.836c-1.067 0-1.6.626-1.6 1.88v11.21h-10.653V47.836c0-1.16.423-2.152 1.27-2.976.847-.823 1.874-1.236 3.08-1.236" fill="#fff"/></svg>